<svg xmlns="http://www.w3.org/2000/svg" height="48" viewBox="0 -960 960 960" width="48"><path d="M141.957-224.782q-16.946 0-28.049-11.458-11.104-11.457-11.104-27.793 0-16.337 11.104-27.315 11.103-10.978 28.049-10.978h677.086q15.971 0 27.181 11.154 11.211 11.153 11.211 27.489t-11.211 27.618q-11.21 11.283-27.181 11.283H141.957Zm0-216.827q-16.946 0-28.049-11.457-11.104-11.458-11.104-27.555 0-16.336 11.104-27.314 11.103-10.978 28.049-10.978h677.086q15.971 0 27.181 11.154 11.211 11.153 11.211 27.489 0 16.097-11.211 27.379-11.21 11.282-27.181 11.282H141.957Zm0-216.826q-16.946 0-28.049-11.338-11.104-11.338-11.104-27.913 0-16.097 11.104-27.195 11.103-11.097 28.049-11.097h677.086q15.971 0 27.181 11.273 11.211 11.273 11.211 27.37 0 16.575-11.211 27.738-11.21 11.162-27.181 11.162H141.957Z"/></svg>